<mxfile host="Electron" agent="Mozilla/5.0 (Windows NT 10.0; Win64; x64) AppleWebKit/537.36 (KHTML, like Gecko) draw.io/28.1.2 Chrome/138.0.7204.243 Electron/37.4.0 Safari/537.36" version="28.1.2">
  <diagram name="Страница — 1" id="ltm_6fakd4BBsWArmzIJ">
    <mxGraphModel dx="1028" dy="645" grid="1" gridSize="10" guides="1" tooltips="1" connect="1" arrows="1" fold="1" page="1" pageScale="1" pageWidth="827" pageHeight="1169" math="0" shadow="0">
      <root>
        <mxCell id="0" />
        <mxCell id="1" parent="0" />
        <mxCell id="vy1yvZvSaZHZFVnlP1wL-4" style="edgeStyle=orthogonalEdgeStyle;rounded=0;orthogonalLoop=1;jettySize=auto;html=1;exitX=1;exitY=0.5;exitDx=0;exitDy=0;entryX=0;entryY=0.5;entryDx=0;entryDy=0;" edge="1" parent="1" source="vy1yvZvSaZHZFVnlP1wL-1" target="vy1yvZvSaZHZFVnlP1wL-2">
          <mxGeometry relative="1" as="geometry" />
        </mxCell>
        <mxCell id="vy1yvZvSaZHZFVnlP1wL-1" value="Запуск&lt;div&gt;бизнеса&lt;/div&gt;" style="ellipse;whiteSpace=wrap;html=1;aspect=fixed;fillColor=#d5e8d4;strokeColor=#82b366;" vertex="1" parent="1">
          <mxGeometry x="100" y="440" width="80" height="80" as="geometry" />
        </mxCell>
        <mxCell id="vy1yvZvSaZHZFVnlP1wL-5" style="edgeStyle=orthogonalEdgeStyle;rounded=0;orthogonalLoop=1;jettySize=auto;html=1;exitX=0.5;exitY=0;exitDx=0;exitDy=0;entryX=0.5;entryY=1;entryDx=0;entryDy=0;" edge="1" parent="1" source="vy1yvZvSaZHZFVnlP1wL-2" target="vy1yvZvSaZHZFVnlP1wL-3">
          <mxGeometry relative="1" as="geometry" />
        </mxCell>
        <mxCell id="vy1yvZvSaZHZFVnlP1wL-7" style="edgeStyle=orthogonalEdgeStyle;rounded=0;orthogonalLoop=1;jettySize=auto;html=1;exitX=1;exitY=0.5;exitDx=0;exitDy=0;" edge="1" parent="1" source="vy1yvZvSaZHZFVnlP1wL-2" target="vy1yvZvSaZHZFVnlP1wL-6">
          <mxGeometry relative="1" as="geometry" />
        </mxCell>
        <mxCell id="vy1yvZvSaZHZFVnlP1wL-2" value="BP1: Стратегическое планирование&amp;nbsp;" style="rounded=1;whiteSpace=wrap;html=1;fillColor=#dae8fc;strokeColor=#6c8ebf;" vertex="1" parent="1">
          <mxGeometry x="220" y="450" width="120" height="60" as="geometry" />
        </mxCell>
        <mxCell id="vy1yvZvSaZHZFVnlP1wL-3" value="SWOT BP1" style="rounded=0;whiteSpace=wrap;html=1;fillColor=#f8cecc;strokeColor=#b85450;" vertex="1" parent="1">
          <mxGeometry x="220" y="350" width="120" height="60" as="geometry" />
        </mxCell>
        <mxCell id="vy1yvZvSaZHZFVnlP1wL-9" style="edgeStyle=orthogonalEdgeStyle;rounded=0;orthogonalLoop=1;jettySize=auto;html=1;exitX=1;exitY=0.5;exitDx=0;exitDy=0;entryX=0.5;entryY=0;entryDx=0;entryDy=0;" edge="1" parent="1" source="vy1yvZvSaZHZFVnlP1wL-6" target="vy1yvZvSaZHZFVnlP1wL-8">
          <mxGeometry relative="1" as="geometry" />
        </mxCell>
        <mxCell id="vy1yvZvSaZHZFVnlP1wL-6" value="+" style="rhombus;whiteSpace=wrap;html=1;fillColor=#fff2cc;strokeColor=#d6b656;" vertex="1" parent="1">
          <mxGeometry x="380" y="470" width="40" height="40" as="geometry" />
        </mxCell>
        <mxCell id="vy1yvZvSaZHZFVnlP1wL-12" style="edgeStyle=orthogonalEdgeStyle;rounded=0;orthogonalLoop=1;jettySize=auto;html=1;exitX=1;exitY=0.5;exitDx=0;exitDy=0;entryX=0;entryY=0.5;entryDx=0;entryDy=0;" edge="1" parent="1" source="vy1yvZvSaZHZFVnlP1wL-8" target="vy1yvZvSaZHZFVnlP1wL-10">
          <mxGeometry relative="1" as="geometry" />
        </mxCell>
        <mxCell id="vy1yvZvSaZHZFVnlP1wL-8" value="BP2: Бизнес-модель" style="rounded=1;whiteSpace=wrap;html=1;fillColor=#dae8fc;strokeColor=#6c8ebf;" vertex="1" parent="1">
          <mxGeometry x="420" y="530" width="120" height="60" as="geometry" />
        </mxCell>
        <mxCell id="vy1yvZvSaZHZFVnlP1wL-13" style="edgeStyle=orthogonalEdgeStyle;rounded=0;orthogonalLoop=1;jettySize=auto;html=1;exitX=1;exitY=0.5;exitDx=0;exitDy=0;entryX=0;entryY=0.5;entryDx=0;entryDy=0;" edge="1" parent="1" source="vy1yvZvSaZHZFVnlP1wL-10" target="vy1yvZvSaZHZFVnlP1wL-11">
          <mxGeometry relative="1" as="geometry" />
        </mxCell>
        <mxCell id="vy1yvZvSaZHZFVnlP1wL-15" style="edgeStyle=orthogonalEdgeStyle;rounded=0;orthogonalLoop=1;jettySize=auto;html=1;exitX=0.5;exitY=1;exitDx=0;exitDy=0;entryX=0.5;entryY=0;entryDx=0;entryDy=0;" edge="1" parent="1" source="vy1yvZvSaZHZFVnlP1wL-10" target="vy1yvZvSaZHZFVnlP1wL-14">
          <mxGeometry relative="1" as="geometry" />
        </mxCell>
        <mxCell id="vy1yvZvSaZHZFVnlP1wL-10" value="BP5: Разработка (Loop: Обновления)" style="rounded=1;whiteSpace=wrap;html=1;fillColor=#dae8fc;strokeColor=#6c8ebf;" vertex="1" parent="1">
          <mxGeometry x="600" y="530" width="120" height="60" as="geometry" />
        </mxCell>
        <mxCell id="vy1yvZvSaZHZFVnlP1wL-17" style="edgeStyle=orthogonalEdgeStyle;rounded=0;orthogonalLoop=1;jettySize=auto;html=1;exitX=1;exitY=0.5;exitDx=0;exitDy=0;entryX=0.5;entryY=0;entryDx=0;entryDy=0;" edge="1" parent="1" source="vy1yvZvSaZHZFVnlP1wL-11" target="vy1yvZvSaZHZFVnlP1wL-16">
          <mxGeometry relative="1" as="geometry" />
        </mxCell>
        <mxCell id="vy1yvZvSaZHZFVnlP1wL-35" style="edgeStyle=orthogonalEdgeStyle;rounded=0;orthogonalLoop=1;jettySize=auto;html=1;exitX=0.5;exitY=1;exitDx=0;exitDy=0;entryX=0.5;entryY=0;entryDx=0;entryDy=0;" edge="1" parent="1" source="vy1yvZvSaZHZFVnlP1wL-11" target="vy1yvZvSaZHZFVnlP1wL-31">
          <mxGeometry relative="1" as="geometry" />
        </mxCell>
        <mxCell id="vy1yvZvSaZHZFVnlP1wL-11" value="X" style="rhombus;whiteSpace=wrap;html=1;fillColor=#fff2cc;strokeColor=#d6b656;" vertex="1" parent="1">
          <mxGeometry x="750" y="540" width="40" height="40" as="geometry" />
        </mxCell>
        <mxCell id="vy1yvZvSaZHZFVnlP1wL-18" style="edgeStyle=orthogonalEdgeStyle;rounded=0;orthogonalLoop=1;jettySize=auto;html=1;exitX=1;exitY=0.5;exitDx=0;exitDy=0;entryX=0;entryY=0.5;entryDx=0;entryDy=0;" edge="1" parent="1" source="vy1yvZvSaZHZFVnlP1wL-14" target="vy1yvZvSaZHZFVnlP1wL-16">
          <mxGeometry relative="1" as="geometry" />
        </mxCell>
        <mxCell id="vy1yvZvSaZHZFVnlP1wL-20" style="edgeStyle=orthogonalEdgeStyle;rounded=0;orthogonalLoop=1;jettySize=auto;html=1;exitX=0;exitY=0.5;exitDx=0;exitDy=0;entryX=1;entryY=0.5;entryDx=0;entryDy=0;" edge="1" parent="1" source="vy1yvZvSaZHZFVnlP1wL-14" target="vy1yvZvSaZHZFVnlP1wL-19">
          <mxGeometry relative="1" as="geometry" />
        </mxCell>
        <mxCell id="vy1yvZvSaZHZFVnlP1wL-14" value="BP3: Маркетинг" style="rounded=1;whiteSpace=wrap;html=1;fillColor=#dae8fc;strokeColor=#6c8ebf;" vertex="1" parent="1">
          <mxGeometry x="600" y="630" width="120" height="60" as="geometry" />
        </mxCell>
        <mxCell id="vy1yvZvSaZHZFVnlP1wL-22" style="edgeStyle=orthogonalEdgeStyle;rounded=0;orthogonalLoop=1;jettySize=auto;html=1;exitX=0.5;exitY=1;exitDx=0;exitDy=0;entryX=0.5;entryY=0;entryDx=0;entryDy=0;" edge="1" parent="1" source="vy1yvZvSaZHZFVnlP1wL-16" target="vy1yvZvSaZHZFVnlP1wL-21">
          <mxGeometry relative="1" as="geometry" />
        </mxCell>
        <mxCell id="vy1yvZvSaZHZFVnlP1wL-24" style="edgeStyle=orthogonalEdgeStyle;rounded=0;orthogonalLoop=1;jettySize=auto;html=1;exitX=1;exitY=0.5;exitDx=0;exitDy=0;entryX=0.5;entryY=0;entryDx=0;entryDy=0;" edge="1" parent="1" source="vy1yvZvSaZHZFVnlP1wL-16" target="vy1yvZvSaZHZFVnlP1wL-23">
          <mxGeometry relative="1" as="geometry" />
        </mxCell>
        <mxCell id="vy1yvZvSaZHZFVnlP1wL-16" value="BP4: Продажи" style="rounded=1;whiteSpace=wrap;html=1;fillColor=#dae8fc;strokeColor=#6c8ebf;" vertex="1" parent="1">
          <mxGeometry x="810" y="630" width="120" height="60" as="geometry" />
        </mxCell>
        <mxCell id="vy1yvZvSaZHZFVnlP1wL-19" value="Лид BP3" style="rounded=0;whiteSpace=wrap;html=1;fillColor=#f8cecc;strokeColor=#b85450;" vertex="1" parent="1">
          <mxGeometry x="420" y="630" width="120" height="60" as="geometry" />
        </mxCell>
        <mxCell id="vy1yvZvSaZHZFVnlP1wL-21" value="Контрагенты BP4" style="rounded=0;whiteSpace=wrap;html=1;fillColor=#f8cecc;strokeColor=#b85450;" vertex="1" parent="1">
          <mxGeometry x="810" y="740" width="120" height="60" as="geometry" />
        </mxCell>
        <mxCell id="vy1yvZvSaZHZFVnlP1wL-26" style="edgeStyle=orthogonalEdgeStyle;rounded=0;orthogonalLoop=1;jettySize=auto;html=1;exitX=1;exitY=0.5;exitDx=0;exitDy=0;entryX=0.5;entryY=0;entryDx=0;entryDy=0;" edge="1" parent="1" source="vy1yvZvSaZHZFVnlP1wL-23" target="vy1yvZvSaZHZFVnlP1wL-25">
          <mxGeometry relative="1" as="geometry" />
        </mxCell>
        <mxCell id="vy1yvZvSaZHZFVnlP1wL-23" value="BP7: Поддержка" style="rounded=1;whiteSpace=wrap;html=1;fillColor=#dae8fc;strokeColor=#6c8ebf;" vertex="1" parent="1">
          <mxGeometry x="980" y="850" width="120" height="60" as="geometry" />
        </mxCell>
        <mxCell id="vy1yvZvSaZHZFVnlP1wL-28" style="edgeStyle=orthogonalEdgeStyle;rounded=0;orthogonalLoop=1;jettySize=auto;html=1;exitX=0.5;exitY=1;exitDx=0;exitDy=0;entryX=0.5;entryY=0;entryDx=0;entryDy=0;" edge="1" parent="1" source="vy1yvZvSaZHZFVnlP1wL-25" target="vy1yvZvSaZHZFVnlP1wL-27">
          <mxGeometry relative="1" as="geometry" />
        </mxCell>
        <mxCell id="vy1yvZvSaZHZFVnlP1wL-30" style="edgeStyle=orthogonalEdgeStyle;rounded=0;orthogonalLoop=1;jettySize=auto;html=1;exitX=0;exitY=0.5;exitDx=0;exitDy=0;entryX=1;entryY=0.5;entryDx=0;entryDy=0;" edge="1" parent="1" source="vy1yvZvSaZHZFVnlP1wL-25" target="vy1yvZvSaZHZFVnlP1wL-29">
          <mxGeometry relative="1" as="geometry" />
        </mxCell>
        <mxCell id="vy1yvZvSaZHZFVnlP1wL-25" value="BP8: Аналитика" style="rounded=1;whiteSpace=wrap;html=1;fillColor=#dae8fc;strokeColor=#6c8ebf;" vertex="1" parent="1">
          <mxGeometry x="1110" y="930" width="120" height="60" as="geometry" />
        </mxCell>
        <mxCell id="vy1yvZvSaZHZFVnlP1wL-27" value="Метрики BP8" style="rounded=0;whiteSpace=wrap;html=1;fillColor=#f8cecc;strokeColor=#b85450;" vertex="1" parent="1">
          <mxGeometry x="1110" y="1030" width="120" height="60" as="geometry" />
        </mxCell>
        <mxCell id="vy1yvZvSaZHZFVnlP1wL-38" style="edgeStyle=orthogonalEdgeStyle;rounded=0;orthogonalLoop=1;jettySize=auto;html=1;exitX=0.5;exitY=1;exitDx=0;exitDy=0;entryX=0.5;entryY=0;entryDx=0;entryDy=0;" edge="1" parent="1" source="vy1yvZvSaZHZFVnlP1wL-29" target="vy1yvZvSaZHZFVnlP1wL-37">
          <mxGeometry relative="1" as="geometry" />
        </mxCell>
        <mxCell id="vy1yvZvSaZHZFVnlP1wL-29" value="X" style="rhombus;whiteSpace=wrap;html=1;fillColor=#fff2cc;strokeColor=#d6b656;" vertex="1" parent="1">
          <mxGeometry x="1020" y="940" width="40" height="40" as="geometry" />
        </mxCell>
        <mxCell id="vy1yvZvSaZHZFVnlP1wL-36" style="edgeStyle=orthogonalEdgeStyle;rounded=0;orthogonalLoop=1;jettySize=auto;html=1;exitX=0.5;exitY=1;exitDx=0;exitDy=0;entryX=0.5;entryY=0;entryDx=0;entryDy=0;" edge="1" parent="1" source="vy1yvZvSaZHZFVnlP1wL-31" target="vy1yvZvSaZHZFVnlP1wL-33">
          <mxGeometry relative="1" as="geometry" />
        </mxCell>
        <mxCell id="vy1yvZvSaZHZFVnlP1wL-31" value="BP6: Патент" style="rounded=1;whiteSpace=wrap;html=1;fillColor=#dae8fc;strokeColor=#6c8ebf;" vertex="1" parent="1">
          <mxGeometry x="710" y="830" width="120" height="60" as="geometry" />
        </mxCell>
        <mxCell id="vy1yvZvSaZHZFVnlP1wL-33" value="Авторское свидетельство на программу" style="rounded=0;whiteSpace=wrap;html=1;fillColor=#f8cecc;strokeColor=#b85450;" vertex="1" parent="1">
          <mxGeometry x="710" y="930" width="120" height="60" as="geometry" />
        </mxCell>
        <mxCell id="vy1yvZvSaZHZFVnlP1wL-40" style="edgeStyle=orthogonalEdgeStyle;rounded=0;orthogonalLoop=1;jettySize=auto;html=1;exitX=0;exitY=0.5;exitDx=0;exitDy=0;entryX=1;entryY=0.5;entryDx=0;entryDy=0;" edge="1" parent="1" source="vy1yvZvSaZHZFVnlP1wL-37" target="vy1yvZvSaZHZFVnlP1wL-39">
          <mxGeometry relative="1" as="geometry" />
        </mxCell>
        <mxCell id="vy1yvZvSaZHZFVnlP1wL-37" value="BP9: Партнерства" style="rounded=1;whiteSpace=wrap;html=1;fillColor=#dae8fc;strokeColor=#6c8ebf;" vertex="1" parent="1">
          <mxGeometry x="870" y="1030" width="120" height="60" as="geometry" />
        </mxCell>
        <mxCell id="vy1yvZvSaZHZFVnlP1wL-42" style="edgeStyle=orthogonalEdgeStyle;rounded=0;orthogonalLoop=1;jettySize=auto;html=1;exitX=0;exitY=0.5;exitDx=0;exitDy=0;entryX=1;entryY=0.5;entryDx=0;entryDy=0;" edge="1" parent="1" source="vy1yvZvSaZHZFVnlP1wL-39" target="vy1yvZvSaZHZFVnlP1wL-41">
          <mxGeometry relative="1" as="geometry" />
        </mxCell>
        <mxCell id="vy1yvZvSaZHZFVnlP1wL-39" value="BP10: Админисстрирование" style="rounded=1;whiteSpace=wrap;html=1;fillColor=#dae8fc;strokeColor=#6c8ebf;" vertex="1" parent="1">
          <mxGeometry x="710" y="1030" width="120" height="60" as="geometry" />
        </mxCell>
        <mxCell id="vy1yvZvSaZHZFVnlP1wL-41" value="Устойчивый&lt;div&gt;доход&lt;/div&gt;" style="ellipse;whiteSpace=wrap;html=1;aspect=fixed;fillColor=#ffe6cc;strokeColor=#d79b00;" vertex="1" parent="1">
          <mxGeometry x="590" y="1020" width="80" height="80" as="geometry" />
        </mxCell>
        <mxCell id="vy1yvZvSaZHZFVnlP1wL-43" value="" style="endArrow=block;dashed=1;endFill=0;endSize=12;html=1;rounded=0;entryX=0.833;entryY=0;entryDx=0;entryDy=0;entryPerimeter=0;fillColor=#f8cecc;strokeColor=#B80D00;" edge="1" parent="1" target="vy1yvZvSaZHZFVnlP1wL-16">
          <mxGeometry width="160" relative="1" as="geometry">
            <mxPoint x="910" y="460" as="sourcePoint" />
            <mxPoint x="960" y="479.5" as="targetPoint" />
          </mxGeometry>
        </mxCell>
        <mxCell id="vy1yvZvSaZHZFVnlP1wL-44" value="" style="endArrow=none;dashed=1;html=1;rounded=0;strokeColor=#FF0000;" edge="1" parent="1">
          <mxGeometry width="50" height="50" relative="1" as="geometry">
            <mxPoint x="340" y="460" as="sourcePoint" />
            <mxPoint x="910" y="460" as="targetPoint" />
          </mxGeometry>
        </mxCell>
      </root>
    </mxGraphModel>
  </diagram>
</mxfile>
